<svg width="400" height="400" viewBox="0 0 400 400" fill="none" xmlns="http://www.w3.org/2000/svg">
<path d="M202.992 382.088C306.95 382.088 391.224 333.43 391.224 273.408C391.224 213.386 306.95 164.728 202.992 164.728C99.0344 164.728 14.76 213.386 14.76 273.408C14.76 333.43 99.0344 382.088 202.992 382.088Z" fill="#F5F5F5"/>
<path d="M327.104 326.704C356.596 326.704 380.504 312.9 380.504 295.872C380.504 278.844 356.596 265.04 327.104 265.04C297.612 265.04 273.704 278.844 273.704 295.872C273.704 312.9 297.612 326.704 327.104 326.704Z" fill="#E0E0E0"/>
<path d="M191.96 312.504L131.72 277.712L200.576 237.96L260.824 272.744L191.96 312.504Z" fill="#E0E0E0"/>
<path d="M27.928 301.744L105.624 346.6L170.792 308.984L93.096 264.128L27.928 301.744Z" fill="#E0E0E0"/>
<path d="M142.816 90.904V86.488C142.783 86.2329 142.684 85.9906 142.53 85.7846C142.376 85.5786 142.171 85.4158 141.936 85.312L115.272 70.016C114.637 69.6966 113.935 69.5302 113.224 69.5302C112.513 69.5302 111.812 69.6966 111.176 70.016L34.5441 114.016C34.3086 114.12 34.104 114.283 33.9498 114.489C33.7956 114.695 33.6972 114.937 33.6641 115.192V119.608C33.6965 119.863 33.7946 120.106 33.9488 120.312C34.1031 120.518 34.3082 120.681 34.5441 120.784L61.2001 136.056C61.8355 136.375 62.5369 136.542 63.2481 136.542C63.9593 136.542 64.6606 136.375 65.2961 136.056L141.928 92.056C142.164 91.9529 142.369 91.7903 142.523 91.5842C142.678 91.378 142.776 91.1354 142.808 90.88L142.816 90.904Z" fill="#F0F0F0"/>
<path d="M34.544 116.344L61.2 131.64C61.8343 131.963 62.5361 132.132 63.248 132.132C63.9599 132.132 64.6617 131.963 65.296 131.64L141.928 87.64C143.056 86.992 143.056 85.944 141.928 85.288L115.272 70.016C114.637 69.6966 113.935 69.5302 113.224 69.5302C112.513 69.5302 111.811 69.6966 111.176 70.016L34.544 114.016C33.416 114.648 33.416 115.696 34.544 116.344Z" fill="#FAFAFA"/>
<path d="M63.2481 132.136V136.544C62.5354 136.554 61.8314 136.387 61.2001 136.056L34.5441 120.8C34.3082 120.697 34.1031 120.534 33.9488 120.328C33.7946 120.122 33.6965 119.879 33.6641 119.624V115.2C33.6797 115.021 33.7373 114.849 33.8321 114.696C33.5201 115.264 33.7521 115.92 34.5441 116.376L61.2001 131.648C61.8297 131.983 62.5349 132.151 63.2481 132.136Z" fill="#E0E0E0"/>
<path d="M77.5681 94.824L100.152 107.696L137.456 86.288L114.88 73.408L77.5681 94.824Z" fill="#E0E0E0"/>
<path d="M100.408 106.72L78.6242 94.216C79.1902 92.3691 79.1482 90.3892 78.5042 88.568L100.152 100.936C100.152 100.936 100.568 102.304 100.408 106.72Z" fill="white"/>
<path d="M99.0401 99.2C99.6481 99.5928 100.155 100.124 100.519 100.749C100.883 101.375 101.095 102.077 101.136 102.8V107.008C101.136 108.336 100.192 108.872 99.0401 108.216L77.6001 95.864V94.824L98.7841 106.904C99.4801 107.304 100.04 106.976 100.04 106.184V102.28C100.016 101.846 99.8897 101.425 99.6714 101.049C99.4531 100.674 99.149 100.355 98.7841 100.12L77.6001 88V86.816L99.0401 99.2Z" fill="#EBEBEB"/>
<path d="M77.6001 86.856L114.88 65.44L136.344 77.76C136.954 78.1531 137.461 78.6851 137.826 79.3122C138.19 79.9393 138.4 80.6438 138.44 81.368V85.6C138.468 85.8588 138.426 86.1204 138.318 86.3571C138.209 86.5938 138.039 86.7966 137.824 86.944L100.52 108.36C100.731 108.209 100.898 108.006 101.005 107.77C101.111 107.534 101.154 107.274 101.128 107.016V102.8C101.089 102.077 100.879 101.373 100.514 100.747C100.15 100.121 99.6419 99.5909 99.0321 99.2L77.6001 86.856Z" fill="#FAFAFA"/>
<path d="M100.52 100.728C100.9 101.345 101.113 102.051 101.136 102.776V106.992C101.162 107.25 101.119 107.51 101.013 107.746C100.906 107.982 100.739 108.185 100.528 108.336L137.832 86.92C138.047 86.7726 138.217 86.5698 138.326 86.3331C138.434 86.0964 138.476 85.8348 138.448 85.576V81.368C138.425 80.6433 138.212 79.9373 137.832 79.32L100.52 100.728Z" fill="#F0F0F0"/>
<path d="M54.6081 62.784L54.3921 65.632L79.6081 79.16L80.1761 77.496L54.6081 62.784Z" fill="#EBEBEB"/>
<path d="M79.84 78.16L55.416 64.064L51.168 66.512L76.072 81.08L79.84 78.16Z" fill="white"/>
<path d="M71.4879 79.568L69.0879 107.872C69.0997 108.192 69.1879 108.504 69.3452 108.782C69.5025 109.06 69.7243 109.297 69.9919 109.472L84.1599 117.672C84.386 117.797 84.6378 117.868 84.8959 117.88L76.0959 82.032C75.8392 82.018 75.5884 81.9498 75.3599 81.832L74.3439 81.24L71.4879 79.568Z" fill="#E0E0E0"/>
<path d="M77.152 81.8L79.68 79.632L81.528 78.032C81.72 77.728 81.944 77.504 81.824 77.232L90.512 112.816C90.632 113.064 90.664 113.616 90.32 113.824L85.944 117.568C85.6127 117.743 85.2367 117.816 84.864 117.776L76.064 81.928C76.4314 81.9915 76.8093 81.947 77.152 81.8Z" fill="#F0F0F0"/>
<path d="M81.5359 77C82.0319 77.288 81.9119 77.608 81.5359 78.04L77.1519 81.792C76.8729 81.9378 76.5627 82.014 76.2479 82.014C75.9331 82.014 75.6229 81.9378 75.3439 81.792L71.4879 79.568C70.9839 79.28 70.8959 78.864 71.2879 78.64C71.5455 78.5355 71.8236 78.4913 72.1009 78.5107C72.3782 78.5301 72.6474 78.6127 72.8879 78.752L75.9279 80.512C76.0209 80.5591 76.1237 80.5836 76.2279 80.5836C76.3321 80.5836 76.4349 80.5591 76.5279 80.512L79.7279 77.728C79.8959 77.632 79.8959 77.48 79.7279 77.384L54.6079 62.784L55.8079 62.088L81.5359 77Z" fill="#FAFAFA"/>
<path d="M47.3281 64.152L71.3521 78.024V123.736L47.3281 109.856V64.152Z" fill="#EBEBEB"/>
<path d="M70.5761 78.784L47.3281 65.44C45.9062 66.9475 44.0441 67.9667 42.0081 68.352L65.0641 81.64C65.0641 81.64 66.5521 81.288 70.5761 78.784Z" fill="white"/>
<path d="M62.8321 81.6C63.525 81.947 64.2892 82.1277 65.0641 82.1277C65.839 82.1277 66.6033 81.947 67.2961 81.6L71.2001 79.312C72.4321 78.6 72.4321 77.456 71.2001 76.744L48.2961 63.592L47.3281 64.152L69.8641 77.168C70.0303 77.2165 70.1762 77.3175 70.2801 77.456C70.384 77.5945 70.4401 77.7629 70.4401 77.936C70.4401 78.1091 70.384 78.2775 70.2801 78.416C70.1762 78.5545 70.0303 78.6555 69.8641 78.704L66.2241 80.8C65.8083 81.009 65.3494 81.1178 64.8841 81.1178C64.4188 81.1178 63.9599 81.009 63.5441 80.8L41.0161 67.776L39.9121 68.408L62.8321 81.6Z" fill="#FAFAFA"/>
<path d="M39.9202 68.408V114.112L62.8322 127.264C63.525 127.611 64.2893 127.792 65.0642 127.792C65.8391 127.792 66.6033 127.611 67.2962 127.264L71.2162 125.016C71.471 124.904 71.6908 124.725 71.8527 124.498C72.0146 124.271 72.1125 124.006 72.1362 123.728V78.024C72.1113 78.3023 72.011 78.5686 71.8461 78.7941C71.6812 79.0197 71.4578 79.196 71.2002 79.304L67.2962 81.6C66.6033 81.947 65.8391 82.1277 65.0642 82.1277C64.2893 82.1277 63.525 81.947 62.8322 81.6L39.9202 68.408Z" fill="#EBEBEB"/>
<path d="M65.0641 82.088C65.8407 82.1033 66.6086 81.9217 67.2961 81.56L71.2001 79.304C71.4548 79.1937 71.6748 79.0164 71.8368 78.791C71.9988 78.5657 72.0967 78.3006 72.1201 78.024V123.728C72.0964 124.006 71.9985 124.271 71.8366 124.498C71.6748 124.725 71.4549 124.904 71.2001 125.016L67.2801 127.264C66.5926 127.626 65.8247 127.807 65.0481 127.792L65.0641 82.088Z" fill="#F0F0F0"/>
<path d="M258.056 248C257.936 245.976 257.664 243.552 257.336 240.736C256.112 230.048 254.44 215.408 258.872 201.384C261.568 192.848 268.064 182.728 278.208 179.92C280.464 179.296 285.92 178.376 288.016 183.216C288.311 183.915 288.487 184.659 288.536 185.416C288.752 188.488 287.368 191.2 285.832 193.672C284.064 196.544 282.016 199.272 280.032 201.928C278.16 204.44 276.216 207.032 274.52 209.72C272.688 212.641 271.084 215.698 269.72 218.864L269.072 218.584C270.433 215.386 272.038 212.297 273.872 209.344C275.576 206.632 277.528 204.024 279.416 201.504C281.384 198.864 283.416 196.144 285.176 193.304C286.648 190.904 287.976 188.336 287.776 185.464C287.733 184.787 287.576 184.121 287.312 183.496C285.44 179.168 280.416 180.032 278.344 180.6C268.472 183.336 262.128 193.24 259.488 201.592C255.104 215.48 256.768 230.032 257.984 240.656C258.304 243.48 258.584 245.92 258.704 247.96L258.056 248Z" fill="#94A8BE"/>
<path d="M258.776 259.632C258.723 259.64 258.669 259.64 258.616 259.632C258.462 259.602 258.318 259.537 258.194 259.441C258.071 259.345 257.971 259.221 257.904 259.08C257.764 258.684 257.764 258.252 257.904 257.856C258.017 257.089 258.017 256.311 257.904 255.544C257.904 255.112 257.832 254.656 257.832 254.248V249.28C258.471 240.356 261.086 231.685 265.488 223.896C269.392 217.104 273.712 212.584 279.088 209.656C281.986 208.064 285.164 207.045 288.448 206.656C291.347 206.336 294.262 207.106 296.624 208.816C299.064 210.744 300.16 214.048 299.24 216.664C298.592 218.496 297.112 219.864 295.6 221.104C292.904 223.304 289.96 225.272 287.12 227.176C284.76 228.776 282.32 230.376 280.04 232.136C273.065 237.52 267.213 244.22 262.816 251.856C262.096 253.096 261.416 254.376 260.792 255.656L260.536 256.16C260.286 256.617 260.067 257.09 259.88 257.576C259.84 257.68 259.8 257.896 259.744 258.144C259.703 258.6 259.558 259.041 259.32 259.432C259.17 259.564 258.976 259.636 258.776 259.632ZM289.6 207.32C289.24 207.32 288.88 207.32 288.512 207.368C285.325 207.74 282.241 208.729 279.432 210.28C274.184 213.136 269.952 217.576 266.112 224.248C261.769 231.941 259.187 240.501 258.552 249.312V254.232C258.552 254.616 258.552 255.032 258.624 255.472C258.753 256.31 258.753 257.162 258.624 258C258.538 258.26 258.538 258.54 258.624 258.8C258.645 258.84 258.674 258.876 258.71 258.904C258.746 258.931 258.788 258.951 258.832 258.96C258.975 258.664 259.072 258.349 259.12 258.024C259.158 257.802 259.212 257.583 259.28 257.368C259.475 256.854 259.705 256.354 259.968 255.872L260.216 255.376C260.856 254.08 261.544 252.792 262.264 251.536C263.76 248.947 265.419 246.457 267.232 244.08C270.816 239.397 274.998 235.204 279.672 231.608C281.976 229.848 284.424 228.208 286.792 226.624C289.624 224.728 292.544 222.768 295.224 220.592C296.648 219.432 298.048 218.128 298.64 216.464C299.44 214.12 298.456 211.152 296.24 209.4C294.327 207.974 291.985 207.24 289.6 207.32Z" fill="#94A8BE"/>
<path d="M258.176 252.8H258.088C258.043 252.79 258.001 252.77 257.963 252.743C257.926 252.716 257.894 252.682 257.87 252.642C257.846 252.603 257.831 252.559 257.824 252.513C257.818 252.467 257.821 252.421 257.832 252.376C264.432 226.056 282.68 214.312 292.424 211.52C292.514 211.495 292.609 211.507 292.69 211.551C292.77 211.596 292.83 211.671 292.856 211.76C292.881 211.85 292.87 211.946 292.826 212.029C292.781 212.111 292.706 212.172 292.616 212.2C283.016 214.944 265.04 226.536 258.52 252.544C258.498 252.618 258.453 252.683 258.391 252.729C258.329 252.775 258.254 252.8 258.176 252.8Z" fill="#94A8BE"/>
<path d="M258.136 231.2C258.042 231.192 257.955 231.147 257.893 231.075C257.832 231.003 257.801 230.91 257.808 230.816C259.912 202.392 278.504 186.816 280.616 185.144C280.652 185.114 280.693 185.091 280.738 185.078C280.783 185.064 280.83 185.06 280.876 185.065C280.922 185.071 280.967 185.085 281.008 185.108C281.048 185.132 281.084 185.163 281.112 185.2C281.141 185.236 281.163 185.278 281.175 185.322C281.188 185.367 281.192 185.414 281.187 185.46C281.182 185.506 281.168 185.55 281.145 185.591C281.123 185.631 281.092 185.667 281.056 185.696C278.968 187.352 260.592 202.744 258.52 230.872C258.51 230.965 258.465 231.051 258.393 231.112C258.322 231.173 258.23 231.205 258.136 231.2Z" fill="#94A8BE"/>
<path d="M255.92 132.072L211.432 106.4C211.088 106.153 210.685 106.001 210.263 105.961C209.842 105.92 209.417 105.992 209.032 106.168L205.832 108.016C205.48 108.261 205.2 108.596 205.022 108.985C204.843 109.375 204.772 109.806 204.816 110.232V232C204.881 233.186 205.225 234.341 205.82 235.369C206.415 236.398 207.244 237.272 208.24 237.92L252.72 263.56C253.063 263.808 253.466 263.961 253.888 264.003C254.309 264.046 254.734 263.975 255.12 263.8L258.32 261.944C258.668 261.698 258.943 261.364 259.119 260.976C259.295 260.587 259.364 260.16 259.32 259.736V137.992C259.258 136.808 258.918 135.654 258.327 134.626C257.736 133.597 256.912 132.722 255.92 132.072Z" fill="#263238"/>
<path d="M214.4 234.088L211.2 235.936V246.064C211.216 246.361 211.302 246.649 211.451 246.906C211.6 247.164 211.807 247.382 212.056 247.544L213.552 248.408C213.818 248.542 214.111 248.612 214.408 248.612C214.706 248.612 214.999 248.542 215.264 248.408L216.76 247.544C217.292 247.201 217.703 246.7 217.936 246.112L220.824 237.792L214.4 234.088Z" fill="#263238"/>
<path d="M211.2 246.064C211.216 246.361 211.302 246.649 211.451 246.906C211.6 247.164 211.807 247.382 212.056 247.544L213.552 248.408C213.656 248.471 213.772 248.509 213.892 248.52C214.012 248.531 214.134 248.515 214.247 248.473C214.36 248.431 214.462 248.363 214.545 248.276C214.629 248.188 214.691 248.083 214.728 247.968L217.6 239.64L211.2 235.936V246.064Z" fill="#37474F"/>
<path d="M246.496 252.56L243.296 254.416V264.536C243.311 264.833 243.395 265.123 243.542 265.381C243.69 265.64 243.896 265.86 244.144 266.024L245.648 266.888C245.912 267.022 246.204 267.092 246.5 267.092C246.796 267.092 247.088 267.022 247.352 266.888L248.856 266.024C249.387 265.681 249.798 265.18 250.032 264.592L252.912 256.264L246.496 252.56Z" fill="#263238"/>
<path d="M243.296 264.536C243.311 264.833 243.395 265.123 243.542 265.381C243.69 265.64 243.896 265.86 244.144 266.024L245.648 266.888C245.751 266.951 245.867 266.989 245.988 267C246.108 267.011 246.229 266.995 246.342 266.953C246.456 266.911 246.558 266.843 246.641 266.756C246.724 266.668 246.787 266.563 246.824 266.448L249.712 258.12L243.312 254.416L243.296 264.536Z" fill="#37474F"/>
<path d="M208.448 108.344L252.928 133.944C253.924 134.594 254.753 135.469 255.348 136.499C255.942 137.529 256.286 138.684 256.352 139.872V261.64C256.436 262.068 256.385 262.511 256.205 262.908C256.025 263.305 255.725 263.636 255.347 263.854C254.97 264.072 254.533 264.166 254.099 264.123C253.665 264.081 253.256 263.903 252.928 263.616L208.448 237.968C207.453 237.319 206.625 236.445 206.032 235.417C205.438 234.388 205.096 233.234 205.032 232.048V110.312C204.946 109.885 204.997 109.442 205.176 109.045C205.356 108.649 205.656 108.318 206.033 108.101C206.41 107.884 206.846 107.79 207.279 107.834C207.713 107.877 208.121 108.056 208.448 108.344Z" fill="#37474F"/>
<path d="M143.856 274.784L191.968 302.56L259.328 263.672L256.12 261.816L208.008 234.04L143.856 271.08V274.784Z" fill="#455A64"/>
<path d="M191.968 302.56V298.856L259.328 259.968V263.672L191.968 302.56Z" fill="#263238"/>
<path d="M192.272 297.168L191.784 296.84C200.32 283.92 200.264 261.6 199.568 256C199.512 255.624 199.472 255.392 199.464 255.304L200.048 255.208C200.048 255.384 200.112 255.592 200.144 255.84C200.768 259.8 204.296 281.312 208.472 287.84L207.976 288.16C204.672 283.032 201.848 269.192 200.432 261.208C200.52 270.272 199.2 286.744 192.272 297.168Z" fill="#FAFAFA"/>
<path d="M220.368 277.44C219.64 277.224 202.632 272.072 201.064 264.568L201.648 264.448C203.136 271.608 220.36 276.824 220.536 276.88L220.368 277.44Z" fill="#FAFAFA"/>
<path d="M203.2 274.4L202.768 272.568C202.709 272.231 202.537 271.925 202.282 271.698C202.026 271.472 201.701 271.338 201.36 271.32C201.078 271.279 200.791 271.325 200.536 271.452C200.281 271.58 200.072 271.782 199.936 272.032L199.384 271.8C199.569 271.434 199.863 271.134 200.225 270.942C200.588 270.75 201.001 270.676 201.408 270.728C201.702 270.747 201.989 270.827 202.25 270.965C202.511 271.103 202.739 271.295 202.92 271.528C203.016 270.769 203.403 270.078 204 269.6C204.226 269.482 204.479 269.424 204.734 269.432C204.989 269.441 205.238 269.515 205.456 269.648L205.192 270.176C205.058 270.09 204.905 270.04 204.747 270.03C204.589 270.02 204.431 270.051 204.288 270.12C203.608 270.504 203.344 271.984 203.304 272.52L203.2 274.4Z" fill="#FAFAFA"/>
<path d="M204.872 280.504L204.344 278.84C203.744 276.96 202.744 275.88 201.56 275.808C201.065 275.798 200.579 275.933 200.159 276.196C199.74 276.459 199.407 276.839 199.2 277.288L198.664 277.032C198.917 276.47 199.331 275.996 199.854 275.67C200.377 275.344 200.984 275.18 201.6 275.2C202.312 275.24 203.536 275.624 204.448 277.48C204.648 276.016 205.248 273.664 206.792 272.68C207.346 272.376 207.969 272.22 208.601 272.227C209.233 272.234 209.853 272.404 210.4 272.72L210.152 273.256C209.694 272.985 209.174 272.836 208.641 272.823C208.109 272.811 207.583 272.935 207.112 273.184C205.056 274.464 204.92 278.696 204.92 278.744L204.872 280.504Z" fill="#FAFAFA"/>
<path d="M197.648 284.568L197.12 284.296C198.304 282.016 200.904 280.376 203.16 280.488C203.639 280.494 204.11 280.606 204.539 280.818C204.968 281.03 205.345 281.335 205.64 281.712C205.857 280.561 206.305 279.466 206.957 278.492C207.609 277.519 208.451 276.687 209.432 276.048C210.485 275.348 211.701 274.932 212.962 274.838C214.223 274.744 215.487 274.976 216.632 275.512L216.4 276.048C215.345 275.56 214.183 275.349 213.024 275.436C211.864 275.522 210.747 275.904 209.776 276.544C208.739 277.216 207.873 278.122 207.247 279.189C206.622 280.256 206.256 281.454 206.176 282.688V284.2L205.616 282.792C205.431 282.292 205.097 281.86 204.66 281.554C204.222 281.248 203.702 281.083 203.168 281.08C201.096 280.976 198.736 282.48 197.648 284.568Z" fill="#FAFAFA"/>
<path d="M194.4 293.4L193.88 293.112C194.6 291.8 198.432 285.208 202.968 284.016C203.608 283.833 204.28 283.787 204.939 283.882C205.598 283.977 206.23 284.211 206.792 284.568L206.488 285.072C205.992 284.759 205.436 284.553 204.856 284.469C204.276 284.385 203.684 284.424 203.12 284.584C199.792 285.464 196.352 289.88 194.4 293.4Z" fill="#FAFAFA"/>
<path d="M252.912 222.928V226.632L191.968 261.816L143.856 234.04V230.336L204.8 195.152L252.912 222.928Z" fill="#263238"/>
<path d="M252.912 222.928L191.968 258.112L143.856 230.336L204.8 195.152L252.912 222.928Z" fill="#455A64"/>
<path d="M252.912 182.192V185.888L191.968 221.08L143.856 193.296V189.6L204.8 154.408L252.912 182.192Z" fill="#263238"/>
<path d="M252.912 182.192L191.968 217.376L143.856 189.6L204.8 154.408L252.912 182.192Z" fill="#455A64"/>
<path d="M191.76 169.064L147.28 143.424C146.937 143.176 146.534 143.023 146.112 142.981C145.691 142.938 145.266 143.009 144.88 143.184C144.304 143.512 142.256 144.704 141.68 145.032C141.33 145.278 141.051 145.613 140.874 146.003C140.697 146.392 140.627 146.822 140.672 147.248V268.984C140.737 270.17 141.081 271.325 141.676 272.353C142.271 273.382 143.1 274.256 144.096 274.904L188.576 300.552C188.919 300.8 189.322 300.953 189.744 300.995C190.165 301.038 190.59 300.967 190.976 300.792C191.552 300.456 193.616 299.272 194.176 298.928C194.528 298.685 194.809 298.352 194.989 297.963C195.169 297.575 195.242 297.146 195.2 296.72V174.992C195.134 173.803 194.788 172.646 194.19 171.616C193.592 170.586 192.76 169.711 191.76 169.064Z" fill="#263238"/>
<path opacity="0.2" d="M191.968 187.752L195.184 185.896V174.776L191.96 176.632L191.968 187.752Z" fill="black"/>
<path opacity="0.2" d="M256.128 150.712L259.344 148.864V137.744L256.12 139.6L256.128 150.712Z" fill="black"/>
<path d="M150.272 271.08L147.072 272.928V283.056C147.088 283.353 147.174 283.641 147.323 283.898C147.472 284.156 147.679 284.374 147.928 284.536L149.424 285.4C149.689 285.534 149.983 285.604 150.28 285.604C150.577 285.604 150.871 285.534 151.136 285.4L152.632 284.536C153.161 284.194 153.572 283.697 153.808 283.112L156.696 274.784L150.272 271.08Z" fill="#263238"/>
<path d="M147.064 283.056C147.08 283.353 147.166 283.641 147.315 283.898C147.464 284.156 147.671 284.374 147.92 284.536L149.416 285.4C149.519 285.463 149.636 285.501 149.756 285.512C149.876 285.523 149.997 285.507 150.111 285.465C150.224 285.423 150.326 285.355 150.409 285.268C150.493 285.18 150.555 285.075 150.592 284.96L153.48 276.632L147.08 272.928L147.064 283.056Z" fill="#37474F"/>
<path d="M182.344 289.6L179.144 291.448V301.576C179.159 301.872 179.243 302.161 179.391 302.418C179.538 302.675 179.744 302.894 179.992 303.056L181.496 303.92C181.76 304.054 182.052 304.124 182.348 304.124C182.644 304.124 182.936 304.054 183.2 303.92L184.704 303.056C185.231 302.712 185.642 302.215 185.88 301.632L188.76 293.304L182.344 289.6Z" fill="#263238"/>
<path d="M179.144 301.536C179.159 301.832 179.243 302.121 179.391 302.378C179.538 302.635 179.744 302.854 179.992 303.016L181.496 303.88C181.599 303.943 181.716 303.981 181.836 303.992C181.956 304.003 182.077 303.987 182.191 303.945C182.304 303.903 182.406 303.835 182.489 303.748C182.573 303.66 182.635 303.555 182.672 303.44L185.552 295.112L179.152 291.408L179.144 301.536Z" fill="#37474F"/>
<path d="M144.064 145.28L188.552 170.92C189.547 171.57 190.375 172.446 190.968 173.476C191.562 174.506 191.904 175.661 191.968 176.848V302.56C191.968 302.56 189.496 301.096 188.552 300.552L144.072 274.904C143.076 274.256 142.247 273.382 141.652 272.353C141.057 271.325 140.713 270.17 140.648 268.984V147.248C140.562 146.821 140.613 146.378 140.793 145.981C140.972 145.585 141.272 145.254 141.649 145.037C142.026 144.82 142.462 144.726 142.896 144.77C143.329 144.813 143.738 144.992 144.064 145.28Z" fill="#37474F"/>
<path opacity="0.2" d="M188.552 170.92L144.064 145.28C143.738 144.992 143.329 144.813 142.896 144.77C142.462 144.726 142.026 144.82 141.649 145.037C141.272 145.254 140.972 145.585 140.793 145.981C140.613 146.378 140.562 146.821 140.648 147.248V158.12L191.968 187.72V176.848C191.904 175.661 191.562 174.506 190.968 173.476C190.375 172.446 189.547 171.57 188.552 170.92Z" fill="black"/>
<path d="M249.704 182.488C249.626 182.486 249.552 182.454 249.497 182.399C249.442 182.344 249.41 182.27 249.408 182.192V145.664L214.568 165.776C214.535 165.797 214.499 165.811 214.46 165.818C214.422 165.824 214.383 165.822 214.345 165.812C214.307 165.802 214.272 165.785 214.242 165.761C214.211 165.737 214.186 165.706 214.168 165.672C214.148 165.638 214.134 165.601 214.129 165.562C214.123 165.524 214.125 165.484 214.135 165.446C214.144 165.408 214.161 165.373 214.185 165.341C214.209 165.31 214.238 165.284 214.272 165.264L249.6 144.896C249.644 144.868 249.696 144.854 249.748 144.854C249.8 144.854 249.851 144.868 249.896 144.896C249.94 144.922 249.977 144.96 250.002 145.005C250.027 145.05 250.04 145.101 250.04 145.152V182.192C250.04 182.234 250.032 182.277 250.014 182.315C249.997 182.354 249.971 182.389 249.94 182.417C249.908 182.445 249.87 182.466 249.829 182.478C249.789 182.49 249.746 182.494 249.704 182.488Z" fill="#FAFAFA"/>
<path d="M243.288 173.224H243.2C243.124 173.207 243.058 173.16 243.016 173.094C242.974 173.028 242.959 172.948 242.976 172.872L248.944 147.024L237.104 167.528C237.086 167.562 237.061 167.592 237.03 167.617C237 167.641 236.965 167.659 236.928 167.669C236.891 167.68 236.852 167.682 236.813 167.677C236.775 167.672 236.738 167.66 236.704 167.64C236.67 167.621 236.639 167.595 236.615 167.564C236.591 167.533 236.573 167.498 236.562 167.46C236.552 167.422 236.549 167.382 236.554 167.343C236.559 167.304 236.572 167.266 236.592 167.232L249.392 145.008C249.429 144.947 249.486 144.901 249.553 144.877C249.62 144.854 249.694 144.855 249.76 144.88C249.826 144.907 249.88 144.956 249.912 145.019C249.944 145.082 249.953 145.155 249.936 145.224L243.536 173.008C243.522 173.065 243.49 173.116 243.446 173.155C243.402 173.194 243.347 173.218 243.288 173.224Z" fill="#FAFAFA"/>
<path d="M230.464 164C230.423 164 230.383 163.992 230.346 163.975C230.308 163.959 230.275 163.934 230.248 163.904C230.193 163.849 230.163 163.774 230.163 163.696C230.163 163.618 230.193 163.543 230.248 163.488L249.496 144.968C249.551 144.913 249.626 144.883 249.704 144.883C249.782 144.883 249.857 144.913 249.912 144.968C249.967 145.025 249.998 145.101 249.998 145.18C249.998 145.259 249.967 145.335 249.912 145.392L230.664 163.904C230.639 163.932 230.608 163.956 230.574 163.972C230.539 163.989 230.502 163.998 230.464 164Z" fill="#FAFAFA"/>
<path d="M249.704 176.576C249.626 176.574 249.552 176.542 249.497 176.487C249.442 176.432 249.41 176.358 249.408 176.28C249.408 171.432 244 171.104 243.768 171.096C243.724 171.093 243.682 171.081 243.643 171.06C243.605 171.039 243.571 171.011 243.544 170.976C243.519 170.942 243.502 170.903 243.493 170.861C243.485 170.82 243.486 170.777 243.496 170.736C243.693 169.746 243.626 168.721 243.302 167.764C242.978 166.808 242.407 165.954 241.648 165.288C241.371 165.011 241.037 164.797 240.67 164.659C240.303 164.521 239.911 164.463 239.52 164.488C239.311 164.523 239.113 164.603 238.937 164.722C238.762 164.84 238.614 164.995 238.504 165.176C238.471 165.234 238.418 165.28 238.356 165.304C238.293 165.329 238.224 165.332 238.16 165.312C238.096 165.292 238.041 165.252 238.003 165.196C237.965 165.141 237.947 165.075 237.952 165.008C237.952 164.824 238.28 160.512 234.488 160.088C234.439 160.082 234.393 160.064 234.352 160.037C234.312 160.009 234.279 159.971 234.256 159.928C234.234 159.886 234.223 159.839 234.223 159.792C234.223 159.745 234.234 159.698 234.256 159.656C234.256 159.656 235.936 156.512 235.288 154.968C235.213 154.787 235.097 154.626 234.948 154.498C234.799 154.37 234.623 154.279 234.432 154.232C234.394 154.222 234.359 154.204 234.328 154.18C234.297 154.156 234.271 154.126 234.253 154.091C234.234 154.057 234.223 154.019 234.219 153.98C234.215 153.941 234.22 153.901 234.232 153.864C234.256 153.79 234.308 153.728 234.376 153.691C234.445 153.653 234.525 153.644 234.6 153.664C234.876 153.735 235.131 153.87 235.345 154.057C235.559 154.245 235.726 154.48 235.832 154.744C236.448 156.208 235.408 158.632 234.96 159.544C237.904 160.112 238.448 162.888 238.528 164.264C238.791 164.077 239.091 163.949 239.408 163.888C239.889 163.841 240.374 163.904 240.827 164.072C241.28 164.24 241.689 164.508 242.024 164.856C242.819 165.557 243.427 166.444 243.795 167.439C244.162 168.433 244.276 169.503 244.128 170.552C245.424 170.72 250 171.624 249.992 176.296C249.988 176.37 249.956 176.44 249.903 176.492C249.849 176.544 249.778 176.574 249.704 176.576Z" fill="#FAFAFA"/>
<path d="M249.704 168.592C249.629 168.592 249.557 168.564 249.503 168.514C249.448 168.464 249.414 168.394 249.408 168.32C249.28 166.624 248.296 164.432 247.056 163.888C246.81 163.778 246.538 163.742 246.272 163.785C246.006 163.828 245.759 163.947 245.56 164.128C245.511 164.159 245.454 164.176 245.396 164.176C245.338 164.176 245.281 164.159 245.232 164.128C245.181 164.1 245.14 164.058 245.113 164.007C245.086 163.956 245.074 163.898 245.08 163.84C245.08 163.84 245.344 160.84 243.992 159.6C243.698 159.355 243.351 159.184 242.978 159.1C242.605 159.017 242.218 159.024 241.848 159.12C241.797 159.131 241.744 159.128 241.695 159.111C241.645 159.094 241.601 159.064 241.568 159.024C241.534 158.984 241.51 158.935 241.501 158.883C241.491 158.832 241.495 158.778 241.512 158.728C241.784 157.984 242.312 155.896 241.6 155.152C241.264 154.808 240.648 154.776 239.76 155.064C239.699 155.084 239.634 155.084 239.573 155.064C239.513 155.044 239.46 155.004 239.424 154.952C239.387 154.901 239.368 154.839 239.368 154.776C239.368 154.713 239.387 154.651 239.424 154.6C239.92 153.976 241.144 152.152 240.84 151.28C240.79 151.16 240.708 151.055 240.604 150.976C240.5 150.897 240.377 150.848 240.248 150.832C240.21 150.823 240.174 150.806 240.143 150.783C240.112 150.76 240.085 150.73 240.065 150.697C240.045 150.663 240.032 150.626 240.026 150.588C240.02 150.549 240.022 150.51 240.032 150.472C240.039 150.434 240.054 150.398 240.077 150.366C240.099 150.334 240.127 150.307 240.16 150.287C240.193 150.266 240.23 150.253 240.269 150.248C240.307 150.242 240.346 150.245 240.384 150.256C240.608 150.289 240.82 150.38 240.999 150.52C241.177 150.661 241.315 150.845 241.4 151.056C241.728 152.008 240.928 153.456 240.368 154.256C240.656 154.187 240.957 154.19 241.244 154.264C241.531 154.338 241.796 154.481 242.016 154.68C242.896 155.592 242.472 157.52 242.208 158.424C242.598 158.377 242.994 158.414 243.369 158.531C243.744 158.648 244.09 158.844 244.384 159.104C245.576 160.192 245.704 162.304 245.688 163.272C245.938 163.154 246.211 163.093 246.488 163.093C246.764 163.093 247.038 163.154 247.288 163.272C248.8 163.936 249.848 166.296 250 168.208C250.003 168.246 249.999 168.285 249.987 168.322C249.975 168.359 249.955 168.393 249.93 168.422C249.905 168.451 249.874 168.474 249.839 168.491C249.804 168.508 249.766 168.518 249.728 168.52L249.704 168.592Z" fill="#FAFAFA"/>
<path d="M266.936 132.192C266.898 131.767 266.748 131.36 266.5 131.013C266.253 130.666 265.917 130.391 265.528 130.216L217.84 102.68C216.78 102.144 215.608 101.864 214.42 101.864C213.232 101.864 212.06 102.144 211 102.68L137.656 145.032C137.267 145.207 136.931 145.482 136.684 145.829C136.436 146.176 136.286 146.583 136.248 147.008V150.712C136.286 151.137 136.436 151.544 136.684 151.891C136.931 152.238 137.267 152.513 137.656 152.688L185.344 180.216C186.403 180.756 187.575 181.038 188.764 181.038C189.953 181.038 191.125 180.756 192.184 180.216L265.528 137.872C265.917 137.697 266.253 137.422 266.5 137.075C266.748 136.728 266.898 136.321 266.936 135.896V132.192Z" fill="#37474F"/>
<path d="M185.344 176.512L137.656 148.984C135.768 147.888 135.768 146.12 137.656 145.032L211 102.68C212.06 102.144 213.232 101.864 214.42 101.864C215.608 101.864 216.78 102.144 217.84 102.68L265.528 130.216C267.424 131.312 267.424 133.072 265.528 134.168L192.184 176.512C191.125 177.052 189.953 177.334 188.764 177.334C187.575 177.334 186.403 177.052 185.344 176.512Z" fill="#455A64"/>
<path opacity="0.1" d="M256.12 143.296L233.672 171.08L195.184 193.304L195.176 178.488L256.12 143.296Z" fill="black"/>
<path opacity="0.1" d="M252.912 185.888L233.672 211.816L195.184 234.048V219.224L252.912 185.888Z" fill="black"/>
<path opacity="0.1" d="M252.912 226.632L233.672 252.56L195.184 274.792V259.968L252.912 226.632Z" fill="black"/>
<path d="M164.624 307.552L105.616 341.624L39.168 303.168L98.176 269.104L164.624 307.552Z" fill="#94A8BE"/>
<path opacity="0.5" d="M164.624 307.552L105.616 341.624L39.168 303.168L98.176 269.104L164.624 307.552Z" fill="black"/>
<path d="M98.176 222.92V269.104L39.168 303.168V256.992L98.176 222.92Z" fill="#94A8BE"/>
<path opacity="0.23" d="M98.176 222.92V269.104L39.168 303.168V256.992L98.176 222.92Z" fill="black"/>
<path d="M105.616 295.44V341.624L39.168 303.168V256.992L105.616 295.44Z" fill="#94A8BE"/>
<path opacity="0.38" d="M105.616 295.44V341.624L39.168 303.168V256.992L105.616 295.44Z" fill="black"/>
<path d="M164.624 261.368V307.552L98.176 269.104V222.92L164.624 261.368Z" fill="#94A8BE"/>
<path opacity="0.4" d="M164.624 261.368V307.552L98.176 269.104V222.92L164.624 261.368Z" fill="black"/>
<path d="M164.624 307.552V261.368L105.616 295.44V341.624L164.624 307.552Z" fill="#94A8BE"/>
<path opacity="0.23" d="M164.624 307.552V261.368L105.616 295.44V341.624L164.624 307.552Z" fill="black"/>
<path d="M98.176 222.92L98.256 197.352L164.544 235.848L164.624 261.368L98.176 222.92Z" fill="#94A8BE"/>
<path opacity="0.2" d="M98.176 222.92L98.256 197.352L164.544 235.848L164.624 261.368L98.176 222.92Z" fill="black"/>
<path d="M105.616 295.44L111.152 273.072L169.624 239.312L164.624 261.368L105.616 295.44Z" fill="#94A8BE"/>
<path opacity="0.3" d="M105.616 295.44L111.152 273.072L169.624 239.312L164.624 261.368L105.616 295.44Z" fill="black"/>
<path d="M39.1679 256.992L32.1279 233.792L91.1359 199.728L98.1759 222.92L39.1679 256.992Z" fill="#94A8BE"/>
<path opacity="0.1" d="M39.1679 256.992L32.1279 233.792L91.1359 199.728L98.1759 222.92L39.1679 256.992Z" fill="black"/>
<path d="M39.168 256.992L25.28 237.816L91.736 276.264L105.616 295.44L39.168 256.992Z" fill="#94A8BE"/>
<path opacity="0.45" d="M39.168 256.992L25.28 237.816L91.736 276.264L105.616 295.44L39.168 256.992Z" fill="black"/>
<g opacity="0.7">
<path d="M122.992 327.888C122.896 327.888 122.803 327.85 122.735 327.783C122.666 327.716 122.626 327.624 122.624 327.528V319.4C122.626 319.303 122.665 319.211 122.734 319.142C122.803 319.073 122.895 319.034 122.992 319.032C123.088 319.034 123.18 319.074 123.247 319.143C123.314 319.211 123.352 319.304 123.352 319.4V327.528C123.352 327.623 123.314 327.715 123.247 327.783C123.179 327.85 123.088 327.888 122.992 327.888Z" fill="white"/>
<path d="M121.928 322.216C121.88 322.223 121.832 322.223 121.784 322.216C121.697 322.176 121.628 322.104 121.593 322.014C121.557 321.925 121.557 321.825 121.592 321.736L122.888 318.752L124.328 320.416C124.38 320.49 124.402 320.581 124.391 320.671C124.379 320.761 124.335 320.844 124.267 320.903C124.199 320.962 124.111 320.995 124.02 320.993C123.93 320.992 123.843 320.957 123.776 320.896L123.096 320.096L122.296 322.016C122.262 322.082 122.208 322.136 122.143 322.172C122.077 322.208 122.002 322.223 121.928 322.216Z" fill="white"/>
<path d="M126.344 325.976C126.248 325.974 126.156 325.934 126.089 325.865C126.022 325.797 125.984 325.704 125.984 325.608V317.488C125.984 317.392 126.022 317.301 126.09 317.233C126.157 317.166 126.249 317.128 126.344 317.128C126.44 317.128 126.531 317.166 126.599 317.233C126.666 317.301 126.704 317.392 126.704 317.488V325.6C126.705 325.648 126.697 325.696 126.679 325.741C126.662 325.786 126.635 325.828 126.602 325.863C126.569 325.897 126.529 325.925 126.484 325.945C126.44 325.964 126.392 325.975 126.344 325.976Z" fill="white"/>
<path d="M125.28 320.304C125.232 320.311 125.184 320.311 125.136 320.304C125.092 320.285 125.052 320.257 125.019 320.223C124.986 320.188 124.96 320.147 124.943 320.103C124.926 320.058 124.918 320.01 124.92 319.962C124.921 319.915 124.932 319.868 124.952 319.824L126.24 316.8L127.68 318.456C127.747 318.525 127.784 318.616 127.784 318.712C127.784 318.808 127.747 318.899 127.68 318.968C127.647 319.002 127.607 319.029 127.563 319.047C127.519 319.065 127.472 319.075 127.424 319.075C127.376 319.075 127.329 319.065 127.285 319.047C127.241 319.029 127.202 319.002 127.168 318.968L126.488 318.168L125.688 320.088C125.655 320.165 125.596 320.229 125.522 320.268C125.448 320.307 125.363 320.32 125.28 320.304Z" fill="white"/>
</g>
<g opacity="0.7">
<path d="M113.32 333.4C113.183 333.402 113.049 333.369 112.928 333.304C112.784 333.211 112.666 333.082 112.589 332.928C112.512 332.775 112.477 332.603 112.488 332.432V331.432C112.49 331.336 112.53 331.244 112.599 331.177C112.668 331.11 112.76 331.072 112.856 331.072C112.952 331.072 113.043 331.11 113.111 331.177C113.178 331.245 113.216 331.337 113.216 331.432V332.432C113.216 332.576 113.216 332.656 113.288 332.672C113.36 332.688 113.4 332.672 113.52 332.608C113.745 332.4 113.923 332.146 114.04 331.863C114.158 331.579 114.212 331.274 114.2 330.968V326.808C114.2 326.713 114.238 326.621 114.306 326.553C114.373 326.486 114.465 326.448 114.56 326.448C114.656 326.448 114.747 326.486 114.815 326.553C114.882 326.621 114.92 326.713 114.92 326.808V330.968C114.938 331.4 114.854 331.83 114.675 332.223C114.495 332.617 114.226 332.962 113.888 333.232C113.717 333.338 113.521 333.396 113.32 333.4Z" fill="white"/>
<path d="M109.504 330.048V329.424C109.599 327.822 110.068 326.264 110.872 324.875C111.676 323.486 112.794 322.304 114.136 321.424C115.448 320.672 116.696 320.56 117.656 321.12C118.168 321.471 118.576 321.953 118.838 322.516C119.1 323.079 119.206 323.702 119.144 324.32V324.528L109.504 330.048ZM116.312 321.456C115.672 321.485 115.049 321.678 114.504 322.016C113.354 322.773 112.38 323.768 111.648 324.935C110.917 326.101 110.445 327.411 110.264 328.776L118.4 324.072C118.435 323.609 118.349 323.144 118.152 322.724C117.954 322.303 117.651 321.941 117.272 321.672C116.977 321.517 116.646 321.443 116.312 321.456Z" fill="white"/>
</g>
<path opacity="0.7" d="M25.28 237.816L91.736 276.264L105.616 295.44L91 276.944L25.28 237.816Z" fill="white"/>
<path opacity="0.7" d="M164.624 261.368L105.616 295.44V341.624L106.72 296.368L164.624 261.368Z" fill="white"/>
<path d="M78.0319 242.896C84.1199 242.016 89.6799 238.096 93.2319 233.168C94.8884 230.865 96.1086 228.279 96.8319 225.536C97.6001 222.971 97.7265 220.257 97.1999 217.632C96.1039 213.24 92.0399 210.64 87.7439 210.096C85.564 209.809 83.3474 210.025 81.2639 210.728C79.1036 211.469 77.2294 212.868 75.9039 214.728C75.0728 215.719 74.55 216.931 74.3999 218.216C74.3871 218.719 74.5645 219.209 74.8967 219.587C75.2288 219.965 75.6913 220.204 76.1919 220.256C77.4801 220.365 78.7674 220.038 79.8479 219.328C81.1654 218.589 82.3259 217.6 83.2639 216.416C85.2762 213.933 86.7819 211.079 87.6959 208.016C88.3373 205.388 88.3373 202.644 87.6959 200.016C87.2087 197.267 85.9521 194.712 84.0719 192.648C81.9165 190.688 79.1812 189.483 76.2799 189.216C73.3925 188.819 70.4525 189.093 67.6879 190.016C66.4736 190.384 65.3487 191 64.3839 191.824C63.6959 192.464 62.9119 193.52 63.1919 194.56C63.4719 195.6 64.9919 196.064 66.0239 195.928C67.5513 195.642 68.9504 194.883 70.0239 193.76C71.2204 192.582 72.2367 191.234 73.0399 189.76C73.6367 188.7 73.9482 187.504 73.9439 186.288C73.8399 181.216 68.2319 177.936 63.8399 177.008C62.6543 176.76 61.4399 176.68 60.2319 176.768C59.8239 176.768 60.0719 177.44 60.3999 177.416C62.7634 177.309 65.1121 177.839 67.1999 178.952C69.2597 179.899 70.9897 181.439 72.1679 183.376C72.693 184.331 72.9522 185.409 72.9184 186.498C72.8846 187.587 72.5592 188.648 71.9759 189.568C71.1926 190.932 70.2173 192.177 69.0799 193.264C68.1279 194.128 66.6799 195.128 65.3439 195.032C65.1234 195.031 64.9074 194.969 64.7206 194.852C64.5339 194.734 64.384 194.567 64.2879 194.368C64.2476 194.105 64.2693 193.837 64.3513 193.584C64.4332 193.331 64.5732 193.101 64.7599 192.912C65.4664 192.151 66.34 191.565 67.3119 191.2C69.712 190.202 72.3108 189.775 74.9039 189.952C77.5763 190 80.1752 190.835 82.3759 192.352C84.2931 193.944 85.6546 196.104 86.2639 198.52C87.0358 200.975 87.2758 203.565 86.9679 206.12C86.4928 208.691 85.5052 211.139 84.0639 213.32C82.5839 215.768 80.7279 218.12 77.9439 219.08C77.2559 219.328 75.8159 219.688 75.5439 218.688C75.2719 217.688 76.0559 216.456 76.5599 215.68C77.6744 213.926 79.2992 212.555 81.2159 211.752C83.0655 211.011 85.062 210.709 87.0479 210.872C90.8159 211.152 94.6399 213.12 95.9519 216.864C96.6101 219.102 96.6817 221.471 96.1599 223.744C95.6893 226.236 94.7936 228.628 93.5119 230.816C90.7551 235.465 86.58 239.107 81.5999 241.208C80.4159 241.72 79.1999 242.152 77.9599 242.552C77.8319 242.6 77.8879 242.92 78.0319 242.896Z" fill="#E0E0E0"/>
<path d="M52.6 173.44C49.4 173.208 44.992 175.728 46.56 177.568C48.128 179.408 52.288 176.432 52.288 176.432C52.288 176.432 51.896 180.152 53.256 180.576C54.616 181 56.456 177.448 55.096 175.176C55.7519 175.435 56.4624 175.523 57.1617 175.434C57.861 175.344 58.5264 175.079 59.096 174.664C61.032 173.24 58.984 171.896 56.256 172.136C56.256 172.136 58.208 165.736 54.264 166.96C52.288 167.56 51.592 169.872 52.6 173.44Z" fill="#94A8BE"/>
<path opacity="0.65" d="M52.6 173.44C49.4 173.208 44.992 175.728 46.56 177.568C48.128 179.408 52.288 176.432 52.288 176.432C52.288 176.432 51.896 180.152 53.256 180.576C54.616 181 56.456 177.448 55.096 175.176C55.7519 175.435 56.4624 175.523 57.1617 175.434C57.861 175.344 58.5264 175.079 59.096 174.664C61.032 173.24 58.984 171.896 56.256 172.136C56.256 172.136 58.208 165.736 54.264 166.96C52.288 167.56 51.592 169.872 52.6 173.44Z" fill="white"/>
<path d="M55.5759 174.8C55.3988 174.627 55.2118 174.464 55.0159 174.312C54.7359 174.096 54.4399 173.888 54.1599 173.68C53.8873 173.482 53.6012 173.303 53.3039 173.144C53.1327 173.049 52.9564 172.964 52.7759 172.888C52.5266 172.771 52.2493 172.727 51.9759 172.76C51.9042 172.762 51.8344 172.783 51.7738 172.821C51.7132 172.86 51.6639 172.914 51.6312 172.977C51.5985 173.041 51.5836 173.112 51.5879 173.184C51.5922 173.256 51.6157 173.325 51.6559 173.384C51.8758 173.622 52.1503 173.803 52.4559 173.912L52.8879 174.144C53.1839 174.32 53.4479 174.52 53.6879 174.72C53.9279 174.92 54.2479 175.112 54.4879 175.312C54.9005 175.647 55.3618 175.916 55.8559 176.112C55.878 176.124 55.9027 176.13 55.9279 176.13C55.953 176.13 55.9777 176.124 55.9999 176.112C56.4079 175.792 55.8079 175.032 55.5759 174.8Z" fill="#455A64"/>
</svg>
